#!OML:ASF E:\inclinewalkrobotboard\Project 1\Capture day 1\Session 1\subject1.ASF
:FULLY-SPECIFIED
:DEGREES
451
root 7.78323 16.7946 27.3221 8.71121 -2.4474 4.61478
lowerback -1.94441 3.29978 -0.65825
upperback 3.59763 4.37108 1.53178
thorax 4.63251 2.11784 2.20362
lowerneck 2.00617 2.96894 -4.25247
upperneck 18.9591 3.99621 1.44569
head 5.26802 1.77563 1.31656
rclavicle -1.98785e-015 -1.11319e-014
rhumerus -20.9349 3.34515 -91.9357
rradius 32.3352
rwrist 7.01313
rhand -12.5188 -37.2196
rfingers 7.12502
rthumb 13.557 -66.7582
lclavicle -1.98785e-015 -1.11319e-014
lhumerus -39.7663 14.2212 77.6884
lradius 14.2241
lwrist -38.1379
lhand -24.7446 -24.6991
lfingers 7.12502
lthumb 1.75828 5.27337
rfemur -3.91604 8.55402 13.276
rtibia 25.3345
rfoot -27.9418 -5.16447
rtoes -28.524
lfemur -31.8423 -11.1171 -2.96788
ltibia 19.4033
lfoot -8.18984 17.925
ltoes -70.4354
452
root 7.88902 16.7514 27.5217 8.48922 -2.43039 4.12636
lowerback -1.8677 3.35419 -0.518993
upperback 3.55292 4.43886 1.51388
thorax 4.55146 2.15817 2.10443
lowerneck 2.06593 2.97184 -4.94585
upperneck 19.0426 3.89942 2.22475
head 5.25441 1.72795 1.6712
rclavicle -1.98785e-015 4.77083e-015
rhumerus -21.1605 3.80701 -92.2531
rradius 32.4406
rwrist 7.00385
rhand -11.7669 -37.6688
rfingers 7.12502
rthumb 14.2816 -67.1577
lclavicle -1.98785e-015 4.77083e-015
lhumerus -39.5984 14.9951 77.244
lradius 13.7719
lwrist -38.2964
lhand -24.4786 -24.7849
lfingers 7.12502
lthumb 2.01516 5.18537
rfemur -2.75271 8.66156 13.5386
rtibia 25.2254
rfoot -28.049 -4.9425
rtoes -29.6093
lfemur -32.0869 -10.6922 -3.05493
ltibia 19.2081
lfoot -7.20954 17.3659
ltoes -70.7277
453
root 7.99559 16.7095 27.7253 8.28604 -2.57441 3.80551
lowerback -1.79853 3.42381 -0.703977
upperback 3.55303 4.54427 1.40245
thorax 4.50314 2.20696 2.09282
lowerneck 1.92555 2.97294 -5.28295
upperneck 19.1552 3.82887 2.80863
head 5.29371 1.70455 1.9116
rclavicle -1.90833e-014 -4.77083e-015
rhumerus -21.1138 4.19589 -92.6542
rradius 32.1603
rwrist 6.54621
rhand -12.123 -37.4758
rfingers 7.12502
rthumb 13.9385 -66.9886
lclavicle -1.90833e-014 -4.77083e-015
lhumerus -39.4172 15.8747 76.6751
lradius 13.4285
lwrist -38.5781
lhand -24.3129 -24.9365
lfingers 7.12502
lthumb 2.17512 5.03221
rfemur -1.72545 8.82626 13.5511
rtibia 25.2296
rfoot -28.1805 -4.67014
rtoes -31.4729
lfemur -32.2043 -10.3126 -3.32691
ltibia 18.9767
lfoot -6.24053 16.7945
ltoes -71.0058
454
root 8.10769 16.6662 27.9328 8.32292 -2.89808 3.37755
lowerback -1.93784 3.55045 -0.86496
upperback 3.49547 4.72653 1.26561
thorax 4.5139 2.29456 2.05787
lowerneck 1.73609 2.9261 -5.4872
upperneck 19.2389 3.70886 3.28021
head 5.33986 1.66005 2.09406
rclavicle 2.90226e-014 -2.38542e-015
rhumerus -21.1276 4.22343 -93.0355
rradius 31.8803
rwrist 6.19067
rhand -12.6281 -37.1169
rfingers 7.12502
rthumb 13.4517 -66.6625
lclavicle 2.90226e-014 -2.38542e-015
lhumerus -39.3651 16.6077 76.1703
lradius 13.2947
lwrist -38.936
lhand -24.3369 -24.8947
lfingers 7.12502
lthumb 2.15198 5.0742
rfemur -1.08009 9.15251 13.5889
rtibia 25.3593
rfoot -28.1981 -4.40262
rtoes -32.864
lfemur -32.4916 -10.1106 -3.34571
ltibia 18.9073
lfoot -5.69793 16.6115
ltoes -71.3797
455
root 8.23094 16.622 28.1517 8.37359 -3.08875 3.03103
lowerback -2.12713 3.62282 -1.1022
upperback 3.44804 4.84109 1.11795
thorax 4.56082 2.34544 2.0549
lowerneck 1.58435 2.84007 -5.84699
upperneck 19.2293 3.52106 3.86721
head 5.34884 1.58057 2.3341
rclavicle -9.74045e-015 8.74653e-015
rhumerus -21.2768 3.66716 -93.182
rradius 31.8555
rwrist 7.13789
rhand -11.3378 -37.5546
rfingers 7.12502
rthumb 14.695 -67.0138
lclavicle -9.74045e-015 8.74653e-015
lhumerus -39.3678 17.4403 75.6362
lradius 13.1888
lwrist -39.4714
lhand -24.4174 -24.8672
lfingers 7.12502
lthumb 2.07424 5.10249
rfemur -0.298239 9.37476 13.5042
rtibia 25.3654
rfoot -28.1512 -4.23179
rtoes -33.924
lfemur -32.8396 -10.2282 -3.54455
ltibia 19.1473
lfoot -5.54322 16.4846
ltoes -71.7429
456
root 8.35582 16.5762 28.3869 8.45911 -3.31892 2.49623
lowerback -2.31287 3.68275 -1.27356
upperback 3.32689 4.93562 0.996906
thorax 4.53249 2.38971 2.03834
lowerneck 1.51524 2.76713 -6.03468
upperneck 19.2076 3.34346 4.42889
head 5.34419 1.51584 2.53649
rclavicle -3.4191e-014 -1.27222e-014
rhumerus -21.7027 3.36399 -93.506
rradius 31.7752
rwrist 6.17894
rhand -12.7774 -37.0151
rfingers 7.12502
rthumb 13.3078 -66.5702
lclavicle -3.4191e-014 -1.27222e-014
lhumerus -39.4806 18.0777 75.1142
lradius 13.1153
lwrist -39.5475
lhand -24.3139 -24.9439
lfingers 7.12502
lthumb 2.17424 5.0248
rfemur 0.612837 9.81263 13.713
rtibia 25.2005
rfoot -28.1773 -4.16471
rtoes -35.1589
lfemur -33.1288 -10.1671 -3.61018
ltibia 19.5522
lfoot -5.45848 16.0477
ltoes -71.9287
457
root 8.4882 16.5257 28.6271 8.69224 -3.48818 1.82066
lowerback -2.44299 3.69652 -1.31691
upperback 3.06054 4.9624 0.851462
thorax 4.33672 2.40864 1.91143
lowerneck 1.48074 2.70299 -6.16597
upperneck 19.1844 3.16506 5.04309
head 5.33372 1.45739 2.74568
rclavicle 2.70347e-014 7.15625e-015
rhumerus -22.2553 2.66636 -93.7225
rradius 31.8053
rwrist 6.57702
rhand -11.9282 -37.2239
rfingers 7.12502
rthumb 14.1262 -66.7237
lclavicle 2.70347e-014 7.15625e-015
lhumerus -39.6528 18.107 74.842
lradius 13.1224
lwrist -38.8476
lhand -24.2144 -24.9566
lfingers 7.12502
lthumb 2.2703 5.01108
rfemur 1.46156 10.0541 14.0311
rtibia 24.9084
rfoot -28.2071 -4.09711
rtoes -36.6107
lfemur -33.5854 -10.0485 -3.60273
ltibia 20.1512
lfoot -5.04221 15.4333
ltoes -71.5301
458
root 8.61982 16.476 28.8692 8.88168 -3.92208 1.03382
lowerback -2.43183 3.78063 -1.42904
upperback 2.8229 5.08322 0.724291
thorax 4.08037 2.47265 1.83707
lowerneck 1.5207 2.64324 -6.19693
upperneck 18.9865 2.99453 5.60907
head 5.25955 1.40663 2.91832
rclavicle -1.21259e-014 1.19271e-014
rhumerus -22.7533 2.04909 -93.8928
rradius 31.7313
rwrist 6.96082
rhand -11.1758 -37.2424
rfingers 7.12502
rthumb 14.8511 -66.6902
lclavicle -1.21259e-014 1.19271e-014
lhumerus -39.8118 18.2268 74.472
lradius 13.1179
lwrist -38.4506
lhand -24.3029 -24.8478
lfingers 7.12502
lthumb 2.18484 5.12075
rfemur 2.3016 10.4434 14.4548
rtibia 24.5795
rfoot -28.1712 -3.98024
rtoes -37.5081
lfemur -33.8373 -9.7379 -3.49566
ltibia 20.764
lfoot -3.80614 13.6853
ltoes -69.8739
459
root 8.75578 16.4324 29.1086 9.07988 -4.45001 0.60186
lowerback -2.40296 3.82116 -1.98423
upperback 2.65468 5.1686 0.474182
thorax 3.86098 2.50726 1.88067
lowerneck 1.49563 2.59408 -6.13715
upperneck 18.7472 2.84085 6.17371
head 5.18465 1.36958 3.0761
rclavicle -2.52457e-014 -1.19271e-015
rhumerus -23.1669 1.43429 -94.115
rradius 31.6806
rwrist 6.95991
rhand -11.1 -37.1477
rfingers 7.12502
rthumb 14.9241 -66.5901
lclavicle -2.52457e-014 -1.19271e-015
lhumerus -39.8396 19.1353 73.6179
lradius 12.9652
lwrist -38.5963
lhand -24.0856 -24.6254
lfingers 7.12502
lthumb 2.39469 5.34091
rfemur 3.23833 10.7204 14.3926
rtibia 23.9712
rfoot -27.9697 -3.32029
rtoes -36.9934
lfemur -34.0309 -9.48542 -3.92703
ltibia 22.9982
lfoot -5.26319 13.7337
ltoes -69.9298
460
root 8.87951 16.392 29.3277 9.34017 -5.03764 -0.302586
lowerback -2.18654 3.92104 -2.29219
upperback 2.52068 5.31086 0.373428
thorax 3.57588 2.57714 1.93013
lowerneck 1.49679 2.50638 -6.24018
upperneck 18.4009 2.62062 6.9024
head 5.07133 1.29809 3.3081
rclavicle 5.60573e-014 -5.96354e-015
rhumerus -23.461 0.66825 -94.2649
rradius 31.6574
rwrist 6.76666
rhand -11.7051 -37.1657
rfingers 7.12502
rthumb 14.3411 -66.6504
lclavicle 5.60573e-014 -5.96354e-015
lhumerus -39.5783 20.9335 72.2353
lradius 12.3468
lwrist -39.5204
lhand -24.0015 -24.3981
lfingers 7.12502
lthumb 2.47595 5.5673
rfemur 3.7684 11.2466 14.9389
rtibia 23.7763
rfoot -27.6251 -2.89321
rtoes -36.7646
lfemur -35.9108 -8.66877 -3.71493
ltibia 27.949
lfoot -7.9029 13.1202
ltoes -69.8933
461
root 8.98165 16.3683 29.5325 9.6695 -5.88616 -0.447773
lowerback -1.98087 4.13176 -3.74297
upperback 2.4085 5.64441 0.128478
thorax 3.21755 2.71764 2.4668
lowerneck 1.48805 2.33567 -6.48958
upperneck 18.0758 2.28264 7.74172
head 4.97233 1.16539 3.59741
rclavicle -9.98893e-015 2.5345e-015
rhumerus -23.7583 -0.438404 -94.1603
rradius 31.5178
rwrist 6.56159
rhand -12.822 -36.8726
rfingers 7.12502
rthumb 13.2647 -66.4305
lclavicle -9.98893e-015 2.5345e-015
lhumerus -39.2157 23.2873 70.4636
lradius 11.4328
lwrist -41.7288
lhand -24.5554 -24.2131
lfingers 7.12502
lthumb 1.94098 5.75777
rfemur 3.70995 11.7814 14.4962
rtibia 24.0831
rfoot -27.2046 -2.94472
rtoes -38.6293
lfemur -37.3358 -7.89756 -4.19848
ltibia 31.6305
lfoot -10.0803 12.8118
ltoes -69.7662
462
root 9.09379 16.3806 29.7558 9.96525 -5.68073 -0.47196
lowerback -1.95619 4.05869 -4.90267
upperback 2.42554 5.59515 -0.148452
thorax 3.14676 2.66884 2.81689
lowerneck 1.40994 2.12125 -6.70532
upperneck 17.8039 1.89496 8.55667
head 4.91001 1.00963 3.87515
rclavicle 1.72694e-014 -1.28216e-014
rhumerus -24.301 -2.11999 -93.7718
rradius 31.4747
rwrist 7.22393
rhand -13.0479 -36.3321
rfingers 7.12502
rthumb 13.047 -65.9041
lclavicle 1.72694e-014 -1.28216e-014
lhumerus -38.7318 25.309 68.9191
lradius 10.8312
lwrist -44.0996
lhand -24.8495 -23.9434
lfingers 7.12502
lthumb 1.65691 6.0299
rfemur 4.38246 11.1077 13.9762
rtibia 23.6771
rfoot -26.7745 -2.83492
rtoes -40.4417
lfemur -37.3537 -8.31704 -4.92844
ltibia 32.5372
lfoot -11.0706 12.5078
ltoes -69.715
463
root 9.19202 16.4034 29.961 10.6543 -6.11577 -0.589162
lowerback -2.25703 4.23596 -6.03502
upperback 2.36212 5.90142 -0.538136
thorax 3.15902 2.79768 3.06855
lowerneck -0.165876 1.42144 -11.417
upperneck 18.3641 0.476231 13.7466
head 5.35639 0.365375 6.37213
rclavicle -2.18663e-015 -1.11319e-014
rhumerus -24.9431 -3.89248 -93.3843
rradius 31.6333
rwrist 7.82414
rhand -12.5989 -36.48
rfingers 7.12502
rthumb 13.4798 -66.0238
lclavicle -2.18663e-015 -1.11319e-014
lhumerus -37.8006 26.3368 68.0578
lradius 10.6244
lwrist -45.6444
lhand -24.6717 -23.3143
lfingers 7.12502
lthumb 1.82868 6.6576
rfemur 4.28263 10.9527 13.4081
rtibia 23.3849
rfoot -26.2816 -2.39842
rtoes -41.1692
lfemur -37.5097 -8.29157 -5.26326
ltibia 33.1991
lfoot -12.1054 12.6121
ltoes -69.7695
